<svg width="132" height="32" viewBox="0 0 132 32" fill="none" xmlns="http://www.w3.org/2000/svg">
<path d="M21.8497 14.4797C21.4972 14.8355 21.2273 15.2651 21.0592 15.7375C20.8911 16.2101 20.8288 16.714 20.8769 17.2134L20.8602 17.1966C20.9097 17.7845 20.8306 18.376 20.6287 18.9302C20.4268 19.4842 20.1069 19.9874 19.6913 20.4046C19.2756 20.8217 18.7742 21.1428 18.222 21.3454C17.67 21.548 17.0805 21.6273 16.4948 21.5777L16.5115 21.5945C15.8108 21.529 15.1071 21.682 14.4962 22.0327C13.8854 22.3833 13.3971 22.9145 13.0981 23.5538C12.7991 24.1931 12.7038 24.9094 12.8253 25.6051C12.9468 26.3007 13.2791 26.9418 13.7769 27.441C14.2748 27.9401 14.9138 28.273 15.6071 28.3943C16.3004 28.5156 17.014 28.4193 17.6507 28.1186C18.2875 27.8179 18.8163 27.3276 19.1652 26.7142C19.514 26.1008 19.6659 25.3944 19.6 24.6913L19.6177 24.7081C19.5682 24.1202 19.6472 23.5286 19.8491 22.9745C20.051 22.4205 20.371 21.9173 20.7866 21.5001C21.2023 21.083 21.7037 20.7618 22.2557 20.5593C22.8079 20.3567 23.3973 20.2773 23.9831 20.327L23.9654 20.3102C24.5378 20.3618 25.1139 20.2676 25.6404 20.0363C26.1668 19.8051 26.6265 19.4441 26.977 18.9871C27.3274 18.53 27.5573 17.9915 27.6451 17.4216C27.733 16.8516 27.6761 16.2687 27.4796 15.7266C27.2832 15.1846 26.9536 14.7011 26.5215 14.321C26.0893 13.9408 25.5685 13.6763 25.0073 13.552C24.4462 13.4277 23.8628 13.4475 23.3113 13.6096C22.7598 13.7718 22.2581 14.071 21.8525 14.4797H21.8497Z" fill="#929C9A"/>
<path d="M14.989 19.3935L14.9714 19.3767C15.4692 19.427 15.972 19.3657 16.4434 19.1972C16.9147 19.0286 17.3429 18.7571 17.6968 18.4021C18.0507 18.0472 18.3217 17.6177 18.4899 17.1448C18.6583 16.6718 18.7197 16.1674 18.67 15.6677L18.6877 15.6845C18.6382 15.0966 18.7172 14.505 18.919 13.9509C19.1209 13.3969 19.441 12.8937 19.8566 12.4765C20.2723 12.0594 20.7736 11.7382 21.3257 11.5357C21.8778 11.333 22.4673 11.2538 23.0531 11.3034L23.0354 11.2866C23.7362 11.3527 24.4401 11.2001 25.0513 10.8499C25.6626 10.4996 26.1512 9.9687 26.4506 9.32949C26.7501 8.69029 26.8458 7.97393 26.7247 7.27812C26.6036 6.58231 26.2716 5.94094 25.7739 5.44148C25.2762 4.94202 24.6371 4.60878 23.9438 4.48725C23.2505 4.3657 22.5367 4.46175 21.8998 4.7623C21.2628 5.06284 20.7338 5.55326 20.3848 6.16666C20.0358 6.78004 19.8838 7.48655 19.9497 8.1898L19.9329 8.17206C19.9825 8.75996 19.9036 9.35164 19.7018 9.90578C19.5 10.4599 19.18 10.9632 18.7644 11.3804C18.3487 11.7975 17.8472 12.1187 17.2951 12.3212C16.7428 12.5237 16.1533 12.6029 15.5675 12.5531L15.5842 12.5709C15.0864 12.5206 14.5836 12.5819 14.1122 12.7504C13.6409 12.9189 13.2127 13.1905 12.8588 13.5455C12.5048 13.9004 12.2339 14.3299 12.0656 14.8028C11.8973 15.2758 11.8359 15.7802 11.8856 16.2799L11.8689 16.2631C11.9182 16.8509 11.839 17.4425 11.6371 17.9965C11.4351 18.5505 11.1152 19.0536 10.6996 19.4707C10.2839 19.8878 9.78264 20.2089 9.23063 20.4116C8.67862 20.6142 8.08919 20.6937 7.50347 20.6442L7.52021 20.661C6.81947 20.5949 6.11549 20.7474 5.50429 21.0977C4.89309 21.448 4.40442 21.9789 4.10495 22.6181C3.80547 23.2573 3.70976 23.9737 3.83087 24.6695C3.95199 25.3653 4.28403 26.0067 4.7817 26.5061C5.27938 27.0056 5.91846 27.3388 6.61179 27.4603C7.30511 27.5819 8.01891 27.4858 8.65584 27.1853C9.29276 26.8847 9.82181 26.3944 10.1708 25.781C10.5198 25.1675 10.6718 24.4611 10.606 23.7578L10.6236 23.7746C10.5741 23.1867 10.6532 22.5951 10.8551 22.041C11.0569 21.487 11.3769 20.9838 11.7925 20.5666C12.2082 20.1495 12.7096 19.8284 13.2617 19.6258C13.8138 19.4232 14.4032 19.3439 14.989 19.3935Z" fill="#929C9A"/>
<path d="M8.75618 17.5205C9.10867 17.1647 9.37853 16.7352 9.54653 16.2626C9.71452 15.7901 9.7765 15.2861 9.72803 14.7867L9.74569 14.8035C9.69621 14.2155 9.77523 13.6237 9.97723 13.0695C10.1792 12.5153 10.4994 12.012 10.9153 11.5948C11.3312 11.1776 11.8327 10.8566 12.385 10.6541C12.9374 10.4516 13.5271 10.3725 14.113 10.4225L14.0953 10.4057C14.7958 10.4715 15.4995 10.3189 16.1104 9.96871C16.7213 9.61849 17.2097 9.08768 17.5091 8.44867C17.8083 7.80966 17.9039 7.09356 17.7829 6.39801C17.6618 5.70246 17.3298 5.06133 16.8323 4.56206C16.3348 4.06278 15.6959 3.72965 15.0029 3.60812C14.3099 3.48657 13.5963 3.58253 12.9596 3.8829C12.3228 4.18326 11.7939 4.67342 11.445 5.28653C11.096 5.89964 10.9439 6.60585 11.0096 7.30886L10.9928 7.29206C11.0423 7.87992 10.9633 8.47153 10.7614 9.02559C10.5594 9.57966 10.2395 10.0828 9.82387 10.5C9.40821 10.9172 8.90683 11.2382 8.35474 11.4408C7.80266 11.6434 7.21317 11.7228 6.62741 11.6731L6.64415 11.6899C6.0718 11.6384 5.49575 11.7328 4.96938 11.9641C4.44302 12.1955 3.98337 12.5565 3.63303 13.0137C3.28269 13.4707 3.053 14.0093 2.96522 14.5792C2.87746 15.1491 2.93446 15.7321 3.13094 16.274C3.32742 16.816 3.65704 17.2994 4.08924 17.6794C4.52144 18.0596 5.04224 18.324 5.60338 18.4483C6.16452 18.5725 6.74784 18.5526 7.2993 18.3905C7.85076 18.2283 8.35249 17.9291 8.75803 17.5205H8.75618Z" fill="#929C9A"/>
<path d="M37.5648 8.21143H40.3269V21.7009H37.5648V8.21143Z" fill="#929C9A"/>
<path d="M41.8912 17.0818C41.8874 16.1125 42.1703 15.1636 42.7041 14.3558C43.2379 13.5479 43.9987 12.9171 44.89 12.5435C45.7813 12.1698 46.763 12.07 47.7108 12.2568C48.6587 12.4435 49.53 12.9083 50.2144 13.5925C50.8988 14.2765 51.3655 15.1491 51.5554 16.0996C51.7453 17.0501 51.6498 18.0358 51.281 18.9318C50.9123 19.8277 50.2869 20.5938 49.484 21.1327C48.681 21.6717 47.7369 21.9594 46.7709 21.9594C46.1298 21.9668 45.4935 21.8457 44.8995 21.6035C44.3054 21.3612 43.7654 21.0025 43.3111 20.5484C42.8567 20.0943 42.4972 19.5538 42.2534 18.9586C42.0096 18.3634 41.8864 17.7254 41.8912 17.0818ZM48.8885 17.0818C48.877 16.664 48.743 16.2588 48.5033 15.9169C48.2635 15.5752 47.9287 15.3118 47.5407 15.1599C47.1527 15.008 46.7287 14.9742 46.3216 15.0628C45.9145 15.1515 45.5425 15.3585 45.2521 15.6582C44.9618 15.9578 44.7657 16.3368 44.6888 16.7476C44.6118 17.1584 44.6571 17.5828 44.8192 17.9679C44.9813 18.353 45.2529 18.6816 45.5999 18.9126C45.9471 19.1436 46.3544 19.2668 46.7709 19.2668C47.0561 19.2744 47.3399 19.2226 47.6043 19.1147C47.8686 19.0068 48.1078 18.8452 48.3067 18.6399C48.5056 18.4346 48.6601 18.1902 48.7602 17.922C48.8603 17.6539 48.904 17.3678 48.8885 17.0818Z" fill="#929C9A"/>
<path d="M62.659 12.4617V21.235C62.659 24.3393 60.2466 25.6515 57.7979 25.6515C56.9358 25.7163 56.0725 25.5415 55.3027 25.1464C54.5331 24.7512 53.8866 24.151 53.4344 23.4115L55.791 22.0442C55.9811 22.4297 56.284 22.7477 56.659 22.9557C57.0342 23.1636 57.4637 23.2518 57.89 23.2081C58.1625 23.246 58.44 23.2219 58.702 23.1376C58.9639 23.0533 59.2036 22.911 59.4034 22.7212C59.6031 22.5314 59.7578 22.299 59.856 22.041C59.9541 21.7832 59.9932 21.5064 59.9704 21.2313V20.3866C59.6469 20.7837 59.2353 21.0993 58.7684 21.3079C58.3014 21.5165 57.7923 21.6124 57.2818 21.5878C56.067 21.5494 54.9148 21.0381 54.0691 20.162C53.2233 19.2861 52.7504 18.1142 52.7504 16.8945C52.7504 15.6749 53.2233 14.503 54.0691 13.627C54.9148 12.751 56.067 12.2397 57.2818 12.2013C57.7923 12.1767 58.3014 12.2726 58.7684 12.4812C59.2353 12.6898 59.6469 13.0053 59.9704 13.4025V12.4598L62.659 12.4617ZM59.9713 16.8959C59.9899 16.4492 59.8748 16.0071 59.6409 15.6266C59.407 15.246 59.0649 14.9444 58.6588 14.7607C58.2527 14.5768 57.8011 14.5192 57.362 14.5952C56.923 14.6712 56.5166 14.8772 56.1952 15.187C55.8739 15.4967 55.6523 15.8958 55.5588 16.333C55.4655 16.7701 55.5045 17.2254 55.6712 17.6401C55.8378 18.0548 56.1242 18.41 56.4936 18.6599C56.863 18.9099 57.2985 19.0432 57.744 19.0426C58.0342 19.063 58.3254 19.0221 58.5989 18.9226C58.8724 18.8231 59.1221 18.6671 59.3319 18.465C59.5418 18.2627 59.7071 18.0186 59.8172 17.7484C59.9273 17.4782 59.9799 17.1878 59.9713 16.8959Z" fill="#929C9A"/>
<path d="M64.2233 17.0818C64.2195 16.1125 64.5023 15.1636 65.0362 14.3558C65.57 13.5479 66.3307 12.9171 67.2221 12.5435C68.1134 12.1698 69.0951 12.07 70.0429 12.2568C70.9908 12.4435 71.8621 12.9083 72.5465 13.5925C73.2309 14.2765 73.6976 15.1491 73.8875 16.0996C74.0774 17.0501 73.9819 18.0358 73.6131 18.9318C73.2444 19.8277 72.6189 20.5938 71.8161 21.1327C71.0131 21.6717 70.069 21.9594 69.103 21.9594C68.4618 21.9668 67.8255 21.8457 67.2315 21.6035C66.6375 21.3612 66.0975 21.0025 65.6432 20.5484C65.1888 20.0943 64.8293 19.5538 64.5855 18.9586C64.3417 18.3634 64.2185 17.7254 64.2233 17.0818ZM71.2206 17.0818C71.2091 16.664 71.075 16.2588 70.8354 15.9169C70.5956 15.5752 70.2608 15.3118 69.8728 15.1599C69.4848 15.008 69.0607 14.9742 68.6537 15.0628C68.2466 15.1515 67.8746 15.3585 67.5842 15.6582C67.2939 15.9578 67.0978 16.3368 67.0208 16.7476C66.9438 17.1584 66.9892 17.5828 67.1513 17.9679C67.3134 18.353 67.5849 18.6816 67.932 18.9126C68.2792 19.1436 68.6864 19.2668 69.103 19.2668C69.3882 19.2744 69.672 19.2226 69.9363 19.1147C70.2007 19.0068 70.4399 18.8452 70.6388 18.6399C70.8377 18.4346 70.9922 18.1902 71.0923 17.922C71.1924 17.6539 71.2361 17.3678 71.2206 17.0818Z" fill="#929C9A"/>
<path d="M75.2708 9.98571C75.2708 9.65676 75.3679 9.3352 75.55 9.06169C75.7321 8.78818 75.991 8.575 76.2938 8.44912C76.5967 8.32323 76.9299 8.29029 77.2514 8.35447C77.5728 8.41864 77.8681 8.57705 78.0999 8.80966C78.3317 9.04225 78.4895 9.3386 78.5535 9.66124C78.6174 9.98386 78.5845 10.3183 78.4592 10.6222C78.3337 10.9261 78.1213 11.1859 77.8487 11.3686C77.5762 11.5514 77.2558 11.6489 76.928 11.6489C76.4899 11.6445 76.0708 11.4679 75.761 11.1569C75.4512 10.846 75.2751 10.4255 75.2708 9.98571ZM75.5498 12.4618H78.3128V21.7018H75.546L75.5498 12.4618Z" fill="#929C9A"/>
<path d="M90.2391 17.0817C90.271 17.6924 90.1824 18.3033 89.9782 18.8795C89.774 19.4556 89.4584 19.9856 89.0494 20.4389C88.6404 20.8921 88.1461 21.2598 87.5951 21.5208C87.044 21.7817 86.447 21.9307 85.8384 21.9593C85.3265 21.9873 84.8149 21.9007 84.3405 21.7057C83.8661 21.5106 83.441 21.2121 83.0958 20.8318V25.3967H80.3337V12.4617H83.0958V13.3297C83.4411 12.9496 83.8664 12.6513 84.3407 12.4565C84.8151 12.2617 85.3266 12.1751 85.8384 12.2031C86.4471 12.2316 87.0443 12.3806 87.5955 12.6415C88.1467 12.9025 88.641 13.2702 89.05 13.7236C89.459 14.1771 89.7747 14.7072 89.9787 15.2835C90.1828 15.8598 90.2713 16.4709 90.2391 17.0817ZM87.477 17.0817C87.4662 16.6493 87.3286 16.2296 87.0813 15.8753C86.834 15.521 86.4881 15.2477 86.0869 15.0898C85.6856 14.9317 85.2469 14.896 84.8255 14.9871C84.4041 15.0781 84.0189 15.2918 83.718 15.6015C83.417 15.9113 83.2138 16.3031 83.1337 16.7282C83.0537 17.1533 83.1002 17.5925 83.2677 17.9911C83.4351 18.3897 83.7161 18.7299 84.0753 18.9691C84.4344 19.2082 84.8558 19.3358 85.2869 19.3357C85.5828 19.3489 85.8782 19.2992 86.1536 19.1898C86.429 19.0805 86.6783 18.9139 86.8851 18.7011C87.0919 18.4882 87.2515 18.234 87.3535 17.9549C87.4555 17.6758 87.4977 17.3782 87.477 17.0817Z" fill="#929C9A"/>
<path d="M98.7626 18.9288C98.7626 21.054 96.9221 21.9593 94.9337 21.9593C94.1302 22.0323 93.3236 21.8619 92.6179 21.4698C91.9121 21.0778 91.3398 20.4823 90.9747 19.7604L93.3676 18.3931C93.4644 18.7267 93.6724 19.0171 93.9567 19.2154C94.2409 19.4138 94.585 19.5084 94.93 19.4832C95.5922 19.4832 95.9242 19.2797 95.9242 18.9111C95.9242 17.8937 91.3942 18.4304 91.3942 15.2337C91.3942 13.2187 93.0886 12.2032 95.0035 12.2032C95.7233 12.1803 96.4357 12.3517 97.0672 12.6994C97.6986 13.0471 98.2259 13.5584 98.5933 14.18L96.2367 15.4549C96.1334 15.2129 95.9614 15.0067 95.7419 14.8622C95.5224 14.7176 95.2658 14.6411 95.0035 14.642C94.5245 14.642 94.2297 14.8287 94.2297 15.1591C94.2335 16.2128 98.7626 15.51 98.7626 18.9288Z" fill="#929C9A"/>
<path d="M108.852 12.4617V21.7017H106.09V20.8327C105.771 21.2161 105.366 21.5183 104.909 21.7143C104.451 21.9103 103.955 21.9945 103.458 21.9602C101.598 21.9602 100.017 20.6302 100.017 18.1335V12.4617H102.779V17.7275C102.756 17.9476 102.781 18.1701 102.853 18.3795C102.923 18.5889 103.04 18.7802 103.192 18.9401C103.345 19.1 103.53 19.2246 103.735 19.3053C103.94 19.3861 104.16 19.421 104.381 19.4075C105.393 19.4075 106.093 18.8167 106.093 17.5045V12.4645L108.852 12.4617Z" fill="#929C9A"/>
<path d="M124.69 16.028V21.7008H121.928V16.2679C121.928 15.3439 121.486 14.7531 120.603 14.7531C119.682 14.7531 119.166 15.3999 119.166 16.49V21.7008H116.405V16.2679C116.405 15.3439 115.963 14.7531 115.078 14.7531C114.158 14.7531 113.643 15.3999 113.643 16.49V21.7008H110.88V12.4608H113.643V13.3102C113.929 12.9334 114.305 12.6345 114.735 12.441C115.167 12.2475 115.639 12.1654 116.11 12.2023C116.582 12.1791 117.053 12.2792 117.476 12.4928C117.898 12.7064 118.258 13.0263 118.521 13.4212C118.827 13.008 119.233 12.6795 119.7 12.4663C120.166 12.2532 120.68 12.1624 121.191 12.2023C123.305 12.2032 124.69 13.718 124.69 16.028Z" fill="#929C9A"/>
<path d="M127.026 12.4049C128.158 12.4049 129.076 11.4839 129.076 10.3478C129.076 9.21175 128.158 8.29077 127.026 8.29077C125.894 8.29077 124.976 9.21175 124.976 10.3478C124.976 11.4839 125.894 12.4049 127.026 12.4049Z" fill="#929C9A"/>
</svg>
