<svg width="124" height="32" viewBox="0 0 124 32" fill="none" xmlns="http://www.w3.org/2000/svg">
<g clip-path="url(#clip0_164_5899)">
<path d="M36.3254 22.3001H44.2723V20.0372H38.7487V9.47095H36.3254V22.3001Z" fill="#929C9A"/>
<path d="M49.048 22.5673C50.0102 22.5673 50.8566 22.3534 51.5871 21.9258C52.3235 21.4922 52.8967 20.8953 53.3066 20.1351C53.7223 19.3689 53.9302 18.4869 53.9302 17.4891C53.9302 16.4972 53.7252 15.6212 53.3154 14.8609C52.9056 14.0947 52.3324 13.4948 51.596 13.0613C50.8654 12.6277 50.0161 12.4109 49.048 12.4109C48.0976 12.4109 47.2572 12.6247 46.5267 13.0524C45.7962 13.48 45.223 14.0769 44.8072 14.8431C44.3915 15.6033 44.1836 16.4853 44.1836 17.4891C44.1836 18.4809 44.3855 19.36 44.7894 20.1262C45.1992 20.8864 45.7694 21.4833 46.5 21.9169C47.2306 22.3505 48.0799 22.5673 49.048 22.5673ZM49.048 20.3044C48.2936 20.3044 47.7206 20.052 47.3286 19.5471C46.9424 19.0363 46.7494 18.3503 46.7494 17.4891C46.7494 16.6516 46.9335 15.9745 47.3018 15.4578C47.676 14.9352 48.258 14.6738 49.048 14.6738C49.8142 14.6738 50.3903 14.9292 50.7763 15.44C51.1683 15.9508 51.3643 16.6338 51.3643 17.4891C51.3643 18.3147 51.1713 18.9917 50.7852 19.5204C50.4051 20.043 49.826 20.3044 49.048 20.3044Z" fill="#929C9A"/>
<path d="M58.7223 22.5673C59.1737 22.5673 59.5895 22.5138 59.9696 22.4069C60.3557 22.3 60.7061 22.1485 61.0209 21.9525V22.9236C61.0328 23.28 60.9407 23.5769 60.7447 23.8145C60.5546 24.058 60.2993 24.2392 59.9785 24.358C59.6578 24.4827 59.3163 24.5451 58.954 24.5451C58.6154 24.5451 58.3006 24.4708 58.0096 24.3224C57.7245 24.1739 57.5047 23.9571 57.3503 23.672L55.1053 24.7589C55.4735 25.3825 55.9991 25.8844 56.6822 26.2645C57.3652 26.6506 58.1165 26.8436 58.9362 26.8436C59.643 26.8436 60.2993 26.7486 60.9051 26.5585C61.5109 26.3744 62.0217 26.0923 62.4374 25.7121C62.8591 25.332 63.1472 24.848 63.3016 24.26C63.3551 24.0521 63.3907 23.8413 63.4085 23.6274C63.4323 23.4196 63.4442 23.1968 63.4442 22.9593V12.6781H61.3238V13.2127C60.9971 12.9573 60.6259 12.7613 60.2102 12.6247C59.8003 12.4821 59.346 12.4109 58.8471 12.4109C57.9265 12.4109 57.1246 12.6307 56.4416 13.0701C55.7586 13.5097 55.227 14.1125 54.8469 14.8787C54.4727 15.6389 54.2856 16.5091 54.2856 17.4891C54.2856 18.4513 54.4697 19.3154 54.838 20.0816C55.2122 20.8478 55.7318 21.4536 56.3971 21.8991C57.0623 22.3445 57.8374 22.5673 58.7223 22.5673ZM59.1143 20.4113C58.5917 20.4113 58.1641 20.2806 57.8314 20.0193C57.4989 19.7579 57.2523 19.4075 57.092 18.968C56.9316 18.5225 56.8514 18.0296 56.8514 17.4891C56.8514 16.9545 56.9346 16.4675 57.1009 16.028C57.2672 15.5825 57.5226 15.2292 57.8671 14.9678C58.2175 14.7005 58.663 14.5669 59.2034 14.5669C59.9637 14.5669 60.5071 14.8372 60.8338 15.3776C61.1605 15.9121 61.3238 16.616 61.3238 17.4891C61.3238 18.3621 61.1575 19.0689 60.8249 19.6094C60.4982 20.144 59.9281 20.4113 59.1143 20.4113Z" fill="#929C9A"/>
<path d="M69.1998 22.5673C70.162 22.5673 71.0084 22.3534 71.7389 21.9258C72.4753 21.4922 73.0486 20.8953 73.4581 20.1351C73.8739 19.3689 74.0818 18.4869 74.0818 17.4891C74.0818 16.4972 73.8774 15.6212 73.4672 14.8609C73.0577 14.0947 72.4844 13.4948 71.7478 13.0613C71.0173 12.6277 70.1679 12.4109 69.1998 12.4109C68.2495 12.4109 67.4091 12.6247 66.6786 13.0524C65.948 13.48 65.3749 14.0769 64.9591 14.8431C64.5433 15.6033 64.3354 16.4853 64.3354 17.4891C64.3354 18.4809 64.5374 19.36 64.9413 20.1262C65.3511 20.8864 65.9213 21.4833 66.6518 21.9169C67.3824 22.3505 68.2317 22.5673 69.1998 22.5673ZM69.1998 20.3044C68.4455 20.3044 67.8723 20.052 67.4803 19.5471C67.0943 19.0363 66.9013 18.3503 66.9013 17.4891C66.9013 16.6516 67.0854 15.9745 67.4537 15.4578C67.8278 14.9352 68.4099 14.6738 69.1998 14.6738C69.966 14.6738 70.5421 14.9292 70.9282 15.44C71.3202 15.9508 71.5162 16.6338 71.5162 17.4891C71.5162 18.3147 71.3231 18.9917 70.9371 19.5204C70.557 20.043 69.9779 20.3044 69.1998 20.3044Z" fill="#929C9A"/>
<path d="M75.15 11.3418H77.5734V9.20361H75.15V11.3418ZM75.15 22.3H77.5734V12.6781H75.15V22.3Z" fill="#929C9A"/>
<path d="M79.1575 26.5764H81.5984V21.9525C81.9134 22.1485 82.2606 22.3 82.6407 22.4069C83.0271 22.5138 83.4457 22.5673 83.8972 22.5673C84.782 22.5673 85.5576 22.3445 86.2226 21.8991C86.8876 21.4536 87.4042 20.8478 87.7724 20.0816C88.1469 19.3154 88.3338 18.4513 88.3338 17.4891C88.3338 16.5091 88.1441 15.6389 87.764 14.8787C87.3895 14.1125 86.861 13.5097 86.1778 13.0701C85.4946 12.6307 84.6931 12.4109 83.7726 12.4109C83.2735 12.4109 82.8164 12.4821 82.4006 12.6247C81.9904 12.7613 81.6222 12.9573 81.296 13.2127V12.6781H79.1575V26.5764ZM83.5052 20.4113C82.6974 20.4113 82.1276 20.144 81.7944 19.6094C81.4619 19.0689 81.296 18.3621 81.296 17.4891C81.296 16.616 81.4591 15.9121 81.786 15.3776C82.1185 14.8372 82.6617 14.5669 83.4163 14.5669C83.9567 14.5669 84.3991 14.7005 84.7435 14.9678C85.0942 15.2292 85.3525 15.5825 85.5184 16.028C85.685 16.4675 85.7683 16.9545 85.7683 17.4891C85.7683 18.0296 85.6878 18.5225 85.5275 18.968C85.3672 19.4075 85.1208 19.7579 84.7883 20.0193C84.4558 20.2806 84.0281 20.4113 83.5052 20.4113Z" fill="#929C9A"/>
<path d="M92.7242 22.5673C93.9828 22.5673 94.9691 22.2852 95.6817 21.7209C96.3943 21.1566 96.7506 20.3816 96.7506 19.3956C96.7506 18.6473 96.5189 18.0563 96.0562 17.6227C95.5984 17.1892 94.8207 16.8298 93.7217 16.5447C92.9734 16.3546 92.4148 16.2002 92.0466 16.0814C91.6847 15.9627 91.4439 15.8468 91.3249 15.734C91.2122 15.6212 91.1562 15.4816 91.1562 15.3153C91.1562 15.0361 91.2892 14.8223 91.5566 14.6738C91.8303 14.5253 92.1894 14.4659 92.6346 14.4956C93.5789 14.5669 94.0962 14.9708 94.1851 15.7073L96.6617 15.2618C96.5371 14.3887 96.1094 13.6968 95.3786 13.186C94.6485 12.6693 93.7161 12.4109 92.5814 12.4109C91.4173 12.4109 90.4877 12.6841 89.7926 13.2305C89.0982 13.7769 88.7503 14.5134 88.7503 15.44C88.7503 16.1765 88.9911 16.7585 89.472 17.1861C89.9529 17.6079 90.7817 17.9701 91.9577 18.2731C92.6528 18.4572 93.1631 18.6057 93.49 18.7185C93.8225 18.8314 94.0367 18.9472 94.1312 19.066C94.2264 19.1788 94.274 19.3303 94.274 19.5204C94.274 19.8233 94.155 20.0608 93.9177 20.2331C93.6804 20.3994 93.3416 20.4825 92.902 20.4825C92.3672 20.4825 91.9248 20.3548 91.5748 20.0994C91.2304 19.8441 91.0071 19.4907 90.9063 19.0393L88.4297 19.4134C88.59 20.4172 89.0415 21.1953 89.7842 21.7476C90.5325 22.2941 91.5125 22.5673 92.7242 22.5673Z" fill="#929C9A"/>
<path d="M101.221 22.5852C101.916 22.5852 102.521 22.4693 103.039 22.2377C103.555 22.0061 103.989 21.6972 104.339 21.3112V22.3001H106.477V12.6782H104.036V17.5604C104.036 18.1544 103.968 18.6354 103.831 19.0037C103.701 19.366 103.531 19.6422 103.324 19.8322C103.116 20.0164 102.893 20.1411 102.655 20.2064C102.418 20.2718 102.195 20.3044 101.987 20.3044C101.471 20.3044 101.07 20.1886 100.785 19.957C100.505 19.7253 100.303 19.4373 100.178 19.0928C100.054 18.7483 99.9797 18.4068 99.9559 18.0682C99.9321 17.7238 99.9202 17.4417 99.9202 17.2219V12.6782H97.4611V18.0772C97.4611 18.2375 97.473 18.4929 97.4968 18.8433C97.5206 19.1938 97.5892 19.5828 97.7019 20.0104C97.8146 20.4321 98.0015 20.839 98.2633 21.231C98.5307 21.623 98.9017 21.9466 99.377 22.2021C99.8516 22.4574 100.467 22.5852 101.221 22.5852Z" fill="#929C9A"/>
<path d="M107.881 22.3H110.322V16.4734C110.322 15.9211 110.473 15.4727 110.776 15.1282C111.085 14.7777 111.491 14.6025 111.997 14.6025C112.525 14.6025 112.938 14.7808 113.235 15.1371C113.537 15.4875 113.689 15.9805 113.689 16.616V22.3H116.113V16.4734C116.113 15.9211 116.264 15.4727 116.567 15.1282C116.876 14.7777 117.282 14.6025 117.787 14.6025C118.316 14.6025 118.729 14.7808 119.025 15.1371C119.328 15.4875 119.48 15.9805 119.48 16.616V22.3H121.903V15.9745C121.903 14.9233 121.621 14.074 121.057 13.4265C120.499 12.7732 119.67 12.4465 118.571 12.4465C117.954 12.4465 117.387 12.5802 116.869 12.8474C116.353 13.1148 115.94 13.48 115.631 13.9433C115.382 13.4919 115.026 13.1296 114.562 12.8564C114.099 12.5832 113.523 12.4465 112.834 12.4465C112.251 12.4465 111.717 12.5624 111.23 12.794C110.743 13.0197 110.339 13.3315 110.018 13.7294V12.6782H107.881V22.3Z" fill="#929C9A"/>
<path d="M16 2C8.26801 2 2 8.26801 2 16C9.73199 16 16 9.73199 16 2Z" fill="#929C9A"/>
<path d="M16 30C23.732 30 30 23.732 30 16C22.268 16 16 22.268 16 30Z" fill="#929C9A"/>
<path d="M16 2C23.732 2 30 8.26801 30 16C22.268 16 16 9.73199 16 2Z" fill="#929C9A"/>
<path d="M16 30C8.26801 30 2 23.732 2 16C9.73199 16 16 22.268 16 30Z" fill="#929C9A"/>
</g>
<defs>
<clipPath id="clip0_164_5899">
<rect width="120.4" height="28" fill="white" transform="translate(2 2)"/>
</clipPath>
</defs>
</svg>
