<svg width="28" height="28" viewBox="0 0 28 28" fill="none" xmlns="http://www.w3.org/2000/svg">
<path d="M3.67612 5.56173C1.79522 7.86021 0.666748 10.7983 0.666748 14C0.666748 17.2017 1.79526 20.1399 3.67621 22.4384L8.92019 17.1944C8.33731 16.2694 8.00008 15.1741 8.00008 14C8.00008 12.826 8.33728 11.7307 8.92011 10.8057L3.67612 5.56173Z" fill="#022C22"/>
<path d="M5.56173 3.6761L10.8057 8.92008C11.7307 8.33721 12.826 7.99999 14.0001 7.99999C15.1742 7.99999 16.2695 8.33722 17.1945 8.9201L22.4385 3.67612C20.14 1.79517 17.2018 0.666656 14.0001 0.666656C10.7984 0.666656 7.86023 1.79516 5.56173 3.6761Z" fill="#022C22"/>
<path d="M24.3241 5.56175L19.0801 10.8057C19.6629 11.7307 20.0001 12.826 20.0001 14C20.0001 15.1741 19.6629 16.2694 19.08 17.1944L24.324 22.4383C26.2049 20.1398 27.3334 17.2017 27.3334 14C27.3334 10.7983 26.205 7.86023 24.3241 5.56175Z" fill="#022C22"/>
<path d="M22.4383 24.324L17.1943 19.08C16.2694 19.6628 15.1741 20 14.0001 20C12.8261 20 11.7308 19.6628 10.8058 19.08L5.56184 24.324C7.86032 26.2049 10.7984 27.3333 14.0001 27.3333C17.2018 27.3333 20.1399 26.2049 22.4383 24.324Z" fill="#022C22"/>
</svg>
