<svg width="24" height="26" viewBox="0 0 24 26" fill="none" xmlns="http://www.w3.org/2000/svg">
<path d="M12.0001 0.666656C8.68637 0.666656 6.00008 3.35295 6.00008 6.66666C6.00008 9.98036 8.68637 12.6667 12.0001 12.6667C15.3138 12.6667 18.0001 9.98036 18.0001 6.66666C18.0001 3.35295 15.3138 0.666656 12.0001 0.666656Z" fill="#022C22"/>
<path d="M12.0001 14C5.65638 14 1.22229 18.6948 0.672606 24.5419C0.637477 24.9155 0.761471 25.2867 1.01414 25.5643C1.26681 25.8418 1.62476 26 2.00009 26H22.0001C22.3754 26 22.7334 25.8418 22.986 25.5643C23.2387 25.2867 23.3627 24.9155 23.3276 24.5419C22.7779 18.6948 18.3438 14 12.0001 14Z" fill="#022C22"/>
</svg>
