<svg width="34" height="34" viewBox="0 0 34 34" fill="none" xmlns="http://www.w3.org/2000/svg">
<path d="M18 17C18 17.5523 17.5523 18 17 18C16.4477 18 16 17.5523 16 17C16 16.4477 16.4477 16 17 16C17.5523 16 18 16.4477 18 17Z" fill="#022C22"/>
<path fill-rule="evenodd" clip-rule="evenodd" d="M17 18C17.5523 18 18 17.5523 18 17C18 16.4477 17.5523 16 17 16C16.4477 16 16 16.4477 16 17C16 17.5523 16.4477 18 17 18Z" fill="#022C22"/>
<path fill-rule="evenodd" clip-rule="evenodd" d="M33 16C33.5523 16 34 16.4477 34 17C34 26.3888 26.3888 34 17 34C16.4477 34 16 33.5523 16 33C16 32.4477 16.4477 32 17 32C25.2843 32 32 25.2843 32 17C32 16.4477 32.4477 16 33 16Z" fill="#022C22"/>
<path fill-rule="evenodd" clip-rule="evenodd" d="M17 2C8.71573 2 2 8.71573 2 17C2 17.5523 1.55228 18 1 18C0.447715 18 0 17.5523 0 17C0 7.61116 7.61116 0 17 0C17.5523 0 18 0.447715 18 1C18 1.55228 17.5523 2 17 2Z" fill="#022C22"/>
<path fill-rule="evenodd" clip-rule="evenodd" d="M29 16C29.5523 16 30 16.4477 30 17C30 24.1797 24.1797 30 17 30C16.4477 30 16 29.5523 16 29C16 28.4477 16.4477 28 17 28C23.0751 28 28 23.0751 28 17C28 16.4477 28.4477 16 29 16Z" fill="#022C22"/>
<path fill-rule="evenodd" clip-rule="evenodd" d="M17 6C10.9249 6 6 10.9249 6 17C6 17.5523 5.55228 18 5 18C4.44772 18 4 17.5523 4 17C4 9.8203 9.8203 4 17 4C17.5523 4 18 4.44772 18 5C18 5.55228 17.5523 6 17 6Z" fill="#022C22"/>
<path fill-rule="evenodd" clip-rule="evenodd" d="M25 16C25.5523 16 26 16.4477 26 17C26 21.9706 21.9706 26 17 26C16.4477 26 16 25.5523 16 25C16 24.4477 16.4477 24 17 24C20.866 24 24 20.866 24 17C24 16.4477 24.4477 16 25 16Z" fill="#022C22"/>
<path fill-rule="evenodd" clip-rule="evenodd" d="M17 10C13.134 10 10 13.134 10 17C10 17.5523 9.55228 18 9 18C8.44772 18 8 17.5523 8 17C8 12.0294 12.0294 8 17 8C17.5523 8 18 8.44772 18 9C18 9.55228 17.5523 10 17 10Z" fill="#022C22"/>
</svg>
