<svg width="22" height="28" viewBox="0 0 22 28" fill="none" xmlns="http://www.w3.org/2000/svg">
<path fill-rule="evenodd" clip-rule="evenodd" d="M11.7885 27.0751L11.79 27.074L11.7925 27.0722L11.7999 27.0667L11.8246 27.0483C11.8455 27.0328 11.8749 27.0106 11.9124 26.9821C11.9874 26.9249 12.0947 26.8422 12.2296 26.7351C12.4993 26.5212 12.8801 26.2099 13.3352 25.8126C14.2434 25.0196 15.4567 23.876 16.6736 22.4735C19.0636 19.7193 21.6666 15.7403 21.6666 11.3333C21.6666 5.44229 16.891 0.666656 10.9999 0.666656C5.10888 0.666656 0.333252 5.44229 0.333252 11.3333C0.333252 15.7403 2.93626 19.7193 5.3262 22.4735C6.54318 23.876 7.75645 25.0196 8.66466 25.8126C9.1197 26.2099 9.50056 26.5212 9.77023 26.7351C9.90513 26.8422 10.0124 26.9249 10.0874 26.9821C10.1249 27.0106 10.1544 27.0328 10.1752 27.0483L10.2 27.0667L10.2074 27.0722L10.2107 27.0746C10.68 27.4189 11.3191 27.4194 11.7885 27.0751ZM10.997 14.6667C12.8379 14.6667 14.3303 13.1743 14.3303 11.3333C14.3303 9.49237 12.8379 7.99999 10.997 7.99999C9.15604 7.99999 7.66366 9.49237 7.66366 11.3333C7.66366 13.1743 9.15604 14.6667 10.997 14.6667Z" fill="#022C22"/>
</svg>
