<svg width="32" height="32" viewBox="0 0 32 32" fill="none" xmlns="http://www.w3.org/2000/svg">
<path d="M5.33333 4C4.59695 4 4 4.59695 4 5.33333C4 17.8518 14.1482 28 26.6667 28C27.403 28 28 27.403 28 26.6667V20.2667C28 19.6779 27.6138 19.1588 27.0498 18.9896L21.7165 17.3896C21.2466 17.2486 20.7374 17.377 20.3905 17.7239L18.8288 19.2856C16.2738 17.847 14.153 15.7262 12.7144 13.1712L14.2761 11.6095C14.623 11.2626 14.7514 10.7534 14.6104 10.2835L13.0104 4.9502C12.8412 4.38622 12.3221 4 11.7333 4H5.33333Z" fill="#022C22"/>
</svg>
