<svg width="26" height="28" viewBox="0 0 26 28" fill="none" xmlns="http://www.w3.org/2000/svg">
<mask id="mask0_202_775" style="mask-type:alpha" maskUnits="userSpaceOnUse" x="0" y="0" width="26" height="28">
<path d="M8 0.666656C7.49497 0.666656 7.03329 0.951993 6.80743 1.40371L0.140765 14.737C-0.0658938 15.1504 -0.0438085 15.6412 0.199134 16.0343C0.442076 16.4274 0.871231 16.6667 1.33333 16.6667H6.2923L4.03981 25.6766C3.89668 26.2492 4.14695 26.8477 4.65504 27.1479C5.16313 27.4481 5.80814 27.3786 6.2406 26.977L24.9073 9.64371C25.309 9.27064 25.4415 8.68964 25.2411 8.1793C25.0407 7.66896 24.5483 7.33332 24 7.33332H18.3549L21.1433 2.68598C21.3905 2.27408 21.3969 1.76107 21.1603 1.34306C20.9236 0.925047 20.4804 0.666656 20 0.666656H8Z" fill="#022C22"/>
</mask>
<g mask="url(#mask0_202_775)">
<rect x="-4" y="12" width="31" height="18" fill="#022C22"/>
</g>
</svg>
