<svg width="32" height="32" viewBox="0 0 32 32" fill="none" xmlns="http://www.w3.org/2000/svg">
<path d="M12 2.66666C11.495 2.66666 11.0333 2.95199 10.8074 3.40371L4.14077 16.737C3.93411 17.1504 3.95619 17.6412 4.19913 18.0343C4.44208 18.4274 4.87123 18.6667 5.33333 18.6667H10.2923L8.03981 27.6766C7.89668 28.2492 8.14695 28.8477 8.65504 29.1479C9.16313 29.4481 9.80814 29.3786 10.2406 28.977L28.9073 11.6437C29.309 11.2706 29.4415 10.6896 29.2411 10.1793C29.0407 9.66896 28.5483 9.33332 28 9.33332H22.3549L25.1433 4.68598C25.3905 4.27408 25.3969 3.76107 25.1603 3.34306C24.9236 2.92505 24.4804 2.66666 24 2.66666H12Z" fill="white"/>
<mask id="mask0_202_761" style="mask-type:alpha" maskUnits="userSpaceOnUse" x="4" y="2" width="26" height="28">
<path d="M12 2.66666C11.495 2.66666 11.0333 2.95199 10.8074 3.40371L4.14077 16.737C3.93411 17.1504 3.95619 17.6412 4.19913 18.0343C4.44208 18.4274 4.87123 18.6667 5.33333 18.6667H10.2923L8.03981 27.6766C7.89668 28.2492 8.14695 28.8477 8.65504 29.1479C9.16313 29.4481 9.80814 29.3786 10.2406 28.977L28.9073 11.6437C29.309 11.2706 29.4415 10.6896 29.2411 10.1793C29.0407 9.66896 28.5483 9.33332 28 9.33332H22.3549L25.1433 4.68598C25.3905 4.27408 25.3969 3.76107 25.1603 3.34306C24.9236 2.92505 24.4804 2.66666 24 2.66666H12Z" fill="#022C22"/>
</mask>
<g mask="url(#mask0_202_761)">
<rect y="18.6667" width="30.6667" height="13.3333" fill="#022C22"/>
</g>
</svg>
