<svg width="116" height="32" viewBox="0 0 116 32" fill="none" xmlns="http://www.w3.org/2000/svg">
<path d="M34.8386 22.0257H42.9589V19.5671H37.7247V10.3066H34.8386V22.0257Z" fill="#929C9A"/>
<path d="M47.7699 20.3865C46.6121 20.3865 46.0088 19.3703 46.0088 17.8461C46.0088 16.3218 46.6121 15.2892 47.7699 15.2892C48.9276 15.2892 49.5472 16.3218 49.5472 17.8461C49.5472 19.3703 48.9276 20.3865 47.7699 20.3865ZM47.7862 22.2878C50.4766 22.2878 52.2377 20.3702 52.2377 17.8461C52.2377 15.322 50.4766 13.4043 47.7862 13.4043C45.112 13.4043 43.3184 15.322 43.3184 17.8461C43.3184 20.3702 45.112 22.2878 47.7862 22.2878Z" fill="#929C9A"/>
<path d="M56.8946 24.9267C58.1339 24.9267 59.2264 24.648 59.9601 23.9924C60.6287 23.386 61.0689 22.4681 61.0689 21.2061V13.6338H58.5252V14.5353H58.4926C58.0034 13.8305 57.2534 13.3879 56.1446 13.3879C54.0737 13.3879 52.6388 15.1253 52.6388 17.5838C52.6388 20.1571 54.3835 21.5667 56.2587 21.5667C57.2697 21.5667 57.9056 21.1569 58.3948 20.5996H58.46V21.4355C58.46 22.4517 57.9871 23.0418 56.862 23.0418C55.9815 23.0418 55.5412 22.6648 55.3945 22.2223H52.8182C53.0791 23.976 54.5955 24.9267 56.8946 24.9267ZM56.8783 19.5835C55.8837 19.5835 55.2314 18.7639 55.2314 17.5019C55.2314 16.2235 55.8837 15.4039 56.8783 15.4039C57.9871 15.4039 58.5741 16.3546 58.5741 17.4855C58.5741 18.6656 58.036 19.5835 56.8783 19.5835Z" fill="#929C9A"/>
<path d="M66.2993 20.3865C65.1416 20.3865 64.5382 19.3703 64.5382 17.8461C64.5382 16.3218 65.1416 15.2892 66.2993 15.2892C67.457 15.2892 68.0764 16.3218 68.0764 17.8461C68.0764 19.3703 67.457 20.3865 66.2993 20.3865ZM66.3156 22.2878C69.0058 22.2878 70.7668 20.3702 70.7668 17.8461C70.7668 15.322 69.0058 13.4043 66.3156 13.4043C63.6414 13.4043 61.8478 15.322 61.8478 17.8461C61.8478 20.3702 63.6414 22.2878 66.3156 22.2878Z" fill="#929C9A"/>
<path d="M71.5435 22.0257H74.2013V13.6339H71.5435V22.0257ZM71.5435 12.4702H74.2013V10.3066H71.5435V12.4702Z" fill="#929C9A"/>
<path d="M75.3542 24.7955H78.0121V21.1569H78.0447C78.5665 21.8617 79.3329 22.2878 80.4091 22.2878C82.5941 22.2878 84.0453 20.5505 84.0453 17.8297C84.0453 15.3056 82.6919 13.3879 80.4743 13.3879C79.3329 13.3879 78.5176 13.896 77.9469 14.65H77.898V13.6338H75.3542V24.7955ZM79.7242 20.2227C78.5828 20.2227 77.9306 19.2884 77.9306 17.928C77.9306 16.5676 78.5176 15.5351 79.6753 15.5351C80.8167 15.5351 81.3548 16.4857 81.3548 17.928C81.3548 19.354 80.7352 20.2227 79.7242 20.2227Z" fill="#929C9A"/>
<path d="M88.3724 22.2878C90.5574 22.2878 92.1717 21.3372 92.1717 19.5015C92.1717 17.3544 90.4433 16.9774 88.9757 16.7315C87.9159 16.5349 86.9701 16.4529 86.9701 15.8629C86.9701 15.3384 87.4756 15.0925 88.1278 15.0925C88.8616 15.0925 89.3671 15.322 89.4649 16.0759H91.9108C91.7803 14.4205 90.5085 13.3879 88.1441 13.3879C86.1711 13.3879 84.5405 14.3058 84.5405 16.0759C84.5405 18.0428 86.0896 18.4361 87.5408 18.682C88.6496 18.8787 89.6606 18.9606 89.6606 19.7146C89.6606 20.2555 89.1551 20.5505 88.3561 20.5505C87.4756 20.5505 86.9212 20.1407 86.8234 19.3048H84.3123C84.3938 21.1569 85.9265 22.2878 88.3724 22.2878Z" fill="#929C9A"/>
<path d="M95.7821 22.2714C96.9398 22.2714 97.6736 21.8125 98.2769 20.993H98.3258V22.0256H100.87V13.6338H98.2117V18.3214C98.2117 19.3212 97.6573 20.0096 96.7441 20.0096C95.8962 20.0096 95.4886 19.5015 95.4886 18.5836V13.6338H92.847V19.1409C92.847 21.0094 93.858 22.2714 95.7821 22.2714Z" fill="#929C9A"/>
<path d="M102.026 22.0256H104.684V17.3216C104.684 16.3218 105.173 15.617 106.005 15.617C106.804 15.617 107.179 16.1415 107.179 17.043V22.0256H109.836V17.3216C109.836 16.3218 110.309 15.617 111.157 15.617C111.956 15.617 112.331 16.1415 112.331 17.043V22.0256H114.989V16.5676C114.989 14.6828 114.043 13.3879 112.152 13.3879C111.076 13.3879 110.179 13.8469 109.527 14.8631H109.494C109.07 13.9616 108.238 13.3879 107.146 13.3879C105.939 13.3879 105.14 13.9616 104.619 14.8303H104.57V13.6338H102.026V22.0256Z" fill="#929C9A"/>
<path fill-rule="evenodd" clip-rule="evenodd" d="M13.6571 29.5377C21.1618 29.5377 27.2454 23.4226 27.2454 15.8792C27.2454 8.33583 21.1618 2.2207 13.6571 2.2207C6.15256 2.2207 0.0689087 8.33583 0.0689087 15.8792C0.0689087 23.4226 6.15256 29.5377 13.6571 29.5377ZM15.7545 12.7737C16.9127 11.6093 16.9127 9.72167 15.7545 8.55735C14.5961 7.39304 12.7182 7.39304 11.5598 8.55735C10.4016 9.72167 10.4016 11.6093 11.5598 12.7737L13.6571 14.8818L15.7545 12.7737ZM16.7467 17.9874C17.9051 19.1517 19.783 19.1517 20.9414 17.9874C22.0996 16.8231 22.0996 14.9354 20.9414 13.7711C19.783 12.6068 17.9051 12.6068 16.7467 13.7711L14.6495 15.8793L16.7467 17.9874ZM15.7545 23.2011C16.9127 22.0368 16.9127 20.1491 15.7545 18.9848L13.6571 16.8767L11.5598 18.9848C10.4016 20.1491 10.4016 22.0368 11.5598 23.2011C12.7182 24.3655 14.5961 24.3655 15.7545 23.2011ZM6.37292 17.9874C5.21463 16.8231 5.21463 14.9354 6.37292 13.7711C7.53127 12.6068 9.40923 12.6068 10.5676 13.7711L12.6648 15.8793L10.5676 17.9874C9.40923 19.1517 7.53127 19.1517 6.37292 17.9874Z" fill="#929C9A"/>
</svg>
