<svg width="128" height="32" viewBox="0 0 128 32" fill="none" xmlns="http://www.w3.org/2000/svg">
<g clip-path="url(#clip0_164_5895)">
<path d="M39.1202 20.7165H47.0681V18.5537H41.7453V8.30884H39.1202V20.7165Z" fill="#929C9A"/>
<path d="M52.4531 20.8982C55.2782 20.8982 57.0363 18.9656 57.0363 16.1C57.0363 13.2161 55.2782 11.2896 52.4531 11.2896C49.6281 11.2896 47.87 13.2161 47.87 16.1C47.87 18.9656 49.6281 20.8982 52.4531 20.8982ZM52.4653 18.8989C51.1618 18.8989 50.4949 17.7054 50.4949 16.0817C50.4949 14.4581 51.1618 13.2586 52.4653 13.2586C53.7445 13.2586 54.4112 14.4581 54.4112 16.0817C54.4112 17.7054 53.7445 18.8989 52.4653 18.8989Z" fill="#929C9A"/>
<path d="M62.3986 24.4C65.06 24.4 66.9514 23.1882 66.9514 20.8073V11.4108H64.387V12.9738H64.2901C63.9445 12.2165 63.1867 11.2896 61.6286 11.2896C59.5856 11.2896 57.8578 12.8769 57.8578 16.0454C57.8578 19.1412 59.5371 20.5832 61.6347 20.5832C63.12 20.5832 63.9506 19.838 64.2901 19.0686H64.3992V20.771C64.3992 22.0493 63.5807 22.5461 62.4592 22.5461C61.3194 22.5461 60.7435 22.0493 60.5314 21.4858L58.1428 21.807C58.4519 23.2731 59.8887 24.4 62.3986 24.4ZM62.4531 18.6444C61.1861 18.6444 60.495 17.6388 60.495 16.0333C60.495 14.452 61.174 13.3434 62.4531 13.3434C63.7081 13.3434 64.4113 14.4036 64.4113 16.0333C64.4113 17.6751 63.6959 18.6444 62.4531 18.6444Z" fill="#929C9A"/>
<path d="M72.7018 20.8982C75.5269 20.8982 77.285 18.9656 77.285 16.1C77.285 13.2161 75.5269 11.2896 72.7018 11.2896C69.8768 11.2896 68.1186 13.2161 68.1186 16.1C68.1186 18.9656 69.8768 20.8982 72.7018 20.8982ZM72.7139 18.8989C71.4105 18.8989 70.7436 17.7054 70.7436 16.0817C70.7436 14.4581 71.4105 13.2586 72.7139 13.2586C73.9931 13.2586 74.6599 14.4581 74.6599 16.0817C74.6599 17.7054 73.9931 18.8989 72.7139 18.8989Z" fill="#929C9A"/>
<path d="M78.4521 20.7165H81.0346V11.4109H78.4521V20.7165ZM79.7494 10.2112C80.5194 10.2112 81.1498 9.62364 81.1498 8.90268C81.1498 8.18779 80.5194 7.6001 79.7494 7.6001C78.9856 7.6001 78.355 8.18779 78.355 8.90268C78.355 9.62364 78.9856 10.2112 79.7494 10.2112Z" fill="#929C9A"/>
<path d="M82.5916 24.2061H85.1738V19.2261H85.2525C85.6103 20.0015 86.392 20.8679 87.8955 20.8679C90.018 20.8679 91.6727 19.1898 91.6727 16.0757C91.6727 12.8769 89.9446 11.2896 87.9018 11.2896C86.3437 11.2896 85.5987 12.2165 85.2525 12.9738H85.1371V11.4108H82.5916V24.2061ZM85.1192 16.0636C85.1192 14.4036 85.8223 13.3434 87.0771 13.3434C88.357 13.3434 89.0359 14.452 89.0359 16.0636C89.0359 17.6872 88.3445 18.8141 87.0771 18.8141C85.8348 18.8141 85.1192 17.7236 85.1192 16.0636Z" fill="#929C9A"/>
<path d="M100.63 14.0643C100.399 12.3498 99.0176 11.2896 96.6653 11.2896C94.2826 11.2896 92.7128 12.3922 92.7182 14.1855C92.7128 15.579 93.5912 16.4816 95.4104 16.8452L97.0231 17.1662C97.8352 17.3298 98.2055 17.6266 98.2171 18.0931C98.2055 18.6444 97.6053 19.0383 96.702 19.0383C95.7798 19.0383 95.168 18.6444 95.0106 17.8872L92.4705 18.0205C92.7128 19.8016 94.228 20.8982 96.6957 20.8982C99.1079 20.8982 100.836 19.6683 100.842 17.8327C100.836 16.4877 99.9567 15.6819 98.1509 15.3123L96.4649 14.973C95.5982 14.7852 95.2771 14.4884 95.2834 14.04C95.2771 13.4827 95.9077 13.1192 96.7073 13.1192C97.6053 13.1192 98.1384 13.6099 98.2654 14.2097L100.63 14.0643Z" fill="#929C9A"/>
<path d="M107.928 16.7544C107.934 18.0024 107.079 18.6567 106.151 18.6567C105.176 18.6567 104.545 17.9721 104.539 16.8755V11.4109H101.957V17.336C101.962 19.511 103.236 20.8378 105.109 20.8378C106.509 20.8378 107.515 20.1168 107.934 19.0262H108.031V20.7166H110.51V11.4109H107.928V16.7544Z" fill="#929C9A"/>
<path d="M112.064 20.7164H114.647V15.1306C114.647 14.1006 115.301 13.4161 116.162 13.4161C117.011 13.4161 117.58 13.9977 117.58 14.9125V20.7164H120.085V15.0336C120.085 14.0703 120.637 13.4161 121.576 13.4161C122.4 13.4161 123.018 13.931 123.018 14.967V20.7164H125.595V14.4581C125.595 12.4406 124.395 11.2896 122.661 11.2896C121.297 11.2896 120.236 11.9863 119.854 13.0525H119.757C119.46 11.9741 118.508 11.2896 117.229 11.2896C115.974 11.2896 115.022 11.956 114.634 13.0525H114.525V11.4108H112.064V20.7164Z" fill="#929C9A"/>
<path d="M13.3015 3.43579H19.7665L17.1714 10.683C12.604 11.4851 9.11062 15.9012 9.11062 21.2287C9.11062 23.632 9.82157 25.8499 11.0213 27.6342H2.43689L10.2847 5.71749C10.7781 4.33942 11.9729 3.43579 13.3015 3.43579Z" fill="#929C9A"/>
<path d="M23.8579 3.43579H17.393L19.9771 10.6524C24.6354 11.3657 28.224 15.829 28.224 21.2287C28.224 23.632 27.513 25.8499 26.3134 27.6342H34.7225L26.8748 5.7175C26.3814 4.33942 25.1866 3.43579 23.8579 3.43579Z" fill="#929C9A"/>
<path d="M12.1485 26.9369C11.0437 25.3646 10.3849 23.3827 10.3849 21.2288C10.3849 16.1189 14.0932 11.9766 18.6674 11.9766C23.2417 11.9766 26.9499 16.1189 26.9499 21.2288C26.9499 23.3827 26.2912 25.3646 25.1864 26.9369C23.3727 25.5876 21.1149 24.7874 18.6674 24.7874C16.22 24.7874 13.9622 25.5876 12.1485 26.9369Z" fill="#929C9A"/>
</g>
<defs>
<clipPath id="clip0_164_5895">
<rect width="126" height="28" fill="white" transform="translate(1 2)"/>
</clipPath>
</defs>
</svg>
