<svg width="22" height="22" viewBox="0 0 22 22" fill="none" xmlns="http://www.w3.org/2000/svg">
<rect x="10" y="0.333252" width="1.33333" height="8" rx="0.666667" fill="#022C22"/>
<rect x="10" y="13.6665" width="1.33333" height="8" rx="0.666667" fill="#022C22"/>
<rect x="17.7377" y="2.98608" width="1.33333" height="8" rx="0.666667" transform="rotate(45 17.7377 2.98608)" fill="#022C22"/>
<rect x="8.30957" y="12.4143" width="1.33333" height="8" rx="0.666667" transform="rotate(45 8.30957 12.4143)" fill="#022C22"/>
<rect x="13.3334" y="11.6665" width="1.33333" height="8" rx="0.666667" transform="rotate(-90 13.3334 11.6665)" fill="#022C22"/>
<rect x="3.8147e-05" y="11.6665" width="1.33333" height="8" rx="0.666667" transform="rotate(-90 3.8147e-05 11.6665)" fill="#022C22"/>
<rect x="12.0808" y="13.3569" width="1.33333" height="8" rx="0.666667" transform="rotate(-45 12.0808 13.3569)" fill="#022C22"/>
<rect x="2.65283" y="3.92896" width="1.33333" height="8" rx="0.666667" transform="rotate(-45 2.65283 3.92896)" fill="#022C22"/>
</svg>
